
mtllib textured.mtl
usemtl mesh

v 0.667986 0.966739 -0.776728
v 0.666357 0.992992 -0.681081
v 0.762877 0.966739 -0.680173
v 0.762877 0.966739 -0.680173
v 0.742144 0.951936 -0.754150
v 0.667986 0.966739 -0.776728
v 0.666357 0.992992 -0.681081
v 0.667986 0.966739 -0.776728
v -0.669099 0.968491 -0.769635
v -0.669099 0.968491 -0.769635
v -0.671943 1.000000 -0.676353
v 0.666357 0.992992 -0.681081
v 0.666357 0.992992 -0.681081
v -0.671943 1.000000 -0.676353
v -0.661960 0.995545 0.637596
v -0.661960 0.995545 0.637596
v 0.661838 0.995545 0.637144
v 0.666357 0.992992 -0.681081
v 0.666357 0.992992 -0.681081
v 0.661838 0.995545 0.637144
v 0.756098 0.967377 0.640209
v 0.756098 0.967377 0.640209
v 0.762877 0.966739 -0.680173
v 0.666357 0.992992 -0.681081
v 0.790753 0.760677 0.774141
v 0.681936 0.760677 0.814085
v 0.658278 0.696581 0.785396
v 0.658278 0.696581 0.785396
v 0.763326 0.696581 0.746894
v 0.790753 0.760677 0.774141
v 0.798960 0.841549 0.782671
v 0.691128 0.841549 0.822620
v 0.681936 0.760677 0.814085
v 0.681936 0.760677 0.814085
v 0.790753 0.760677 0.774141
v 0.798960 0.841549 0.782671
v 0.691128 0.841549 0.822620
v -0.695316 0.841549 0.822733
v -0.686768 0.760677 0.814085
v -0.686768 0.760677 0.814085
v 0.681936 0.760677 0.814085
v 0.691128 0.841549 0.822620
v 0.681936 0.760677 0.814085
v -0.686768 0.760677 0.814085
v -0.663004 0.696581 0.785396
v -0.663004 0.696581 0.785396
v 0.658278 0.696581 0.785396
v 0.681936 0.760677 0.814085
v 0.782395 0.760677 -0.795681
v 0.821454 0.760677 -0.690724
v 0.790063 0.696581 -0.664349
v 0.790063 0.696581 -0.664349
v 0.750907 0.696581 -0.764208
v 0.782395 0.760677 -0.795681
v 0.797165 0.841549 -0.809875
v 0.834443 0.841549 -0.703623
v 0.821454 0.760677 -0.690724
v 0.821454 0.760677 -0.690724
v 0.782395 0.760677 -0.795681
v 0.797165 0.841549 -0.809875
v 0.834443 0.841549 -0.703623
v 0.834734 0.841549 0.663383
v 0.827027 0.760677 0.654311
v 0.827027 0.760677 0.654311
v 0.821454 0.760677 -0.690724
v 0.834443 0.841549 -0.703623
v 0.821454 0.760677 -0.690724
v 0.827027 0.760677 0.654311
v 0.798342 0.696581 0.631389
v 0.798342 0.696581 0.631389
v 0.790063 0.696581 -0.664349
v 0.821454 0.760677 -0.690724
v -0.787897 0.760677 -0.813500
v -0.684024 0.760677 -0.846294
v -0.658926 0.696581 -0.820710
v -0.658926 0.696581 -0.820710
v -0.758486 0.696581 -0.790678
v -0.787897 0.760677 -0.813500
v -0.798524 0.841549 -0.813424
v -0.694542 0.841549 -0.849281
v -0.684024 0.760677 -0.846294
v -0.684024 0.760677 -0.846294
v -0.787897 0.760677 -0.813500
v -0.798524 0.841549 -0.813424
v -0.694542 0.841549 -0.849281
v 0.689750 0.841549 -0.847436
v 0.676363 0.760677 -0.834416
v 0.676363 0.760677 -0.834416
v -0.684024 0.760677 -0.846294
v -0.694542 0.841549 -0.849281
v -0.684024 0.760677 -0.846294
v 0.676363 0.760677 -0.834416
v 0.649998 0.696581 -0.803063
v 0.649998 0.696581 -0.803063
v -0.658926 0.696581 -0.820710
v -0.684024 0.760677 -0.846294
v -0.792014 0.760677 0.774141
v -0.827097 0.760677 0.654311
v -0.798469 0.696581 0.631389
v -0.798469 0.696581 0.631389
v -0.764603 0.696581 0.746894
v -0.792014 0.760677 0.774141
v -0.799044 0.841549 0.781650
v -0.833550 0.841549 0.662542
v -0.827097 0.760677 0.654311
v -0.827097 0.760677 0.654311
v -0.792014 0.760677 0.774141
v -0.799044 0.841549 0.781650
v -0.833550 0.841549 0.662542
v -0.835346 0.841549 -0.706093
v -0.824351 0.760677 -0.702602
v -0.824351 0.760677 -0.702602
v -0.827097 0.760677 0.654311
v -0.833550 0.841549 0.662542
v -0.827097 0.760677 0.654311
v -0.824351 0.760677 -0.702602
v -0.794391 0.696581 -0.681995
v -0.794391 0.696581 -0.681995
v -0.798469 0.696581 0.631389
v -0.827097 0.760677 0.654311
v 0.777568 0.913247 0.762358
v 0.679015 0.913247 0.800010
v 0.691128 0.841549 0.822620
v 0.691128 0.841549 0.822620
v 0.798960 0.841549 0.782671
v 0.777568 0.913247 0.762358
v 0.738961 0.952219 0.722038
v 0.666644 0.967377 0.744220
v 0.679015 0.913247 0.800010
v 0.679015 0.913247 0.800010
v 0.777568 0.913247 0.762358
v 0.738961 0.952219 0.722038
v -0.666978 0.967377 0.744897
v -0.681200 0.913247 0.800461
v 0.679015 0.913247 0.800010
v 0.679015 0.913247 0.800010
v 0.666644 0.967377 0.744220
v -0.666978 0.967377 0.744897
v 0.679015 0.913247 0.800010
v -0.681200 0.913247 0.800461
v -0.695316 0.841549 0.822733
v -0.695316 0.841549 0.822733
v 0.691128 0.841549 0.822620
v 0.679015 0.913247 0.800010
v 0.778911 0.913247 -0.790028
v 0.814256 0.913247 -0.691722
v 0.834443 0.841549 -0.703623
v 0.834443 0.841549 -0.703623
v 0.797165 0.841549 -0.809875
v 0.778911 0.913247 -0.790028
v 0.742144 0.951936 -0.754150
v 0.762877 0.966739 -0.680173
v 0.814256 0.913247 -0.691722
v 0.814256 0.913247 -0.691722
v 0.778911 0.913247 -0.790028
v 0.742144 0.951936 -0.754150
v 0.762877 0.966739 -0.680173
v 0.756098 0.967377 0.640209
v 0.809737 0.913247 0.651654
v 0.809737 0.913247 0.651654
v 0.814256 0.913247 -0.691722
v 0.762877 0.966739 -0.680173
v 0.814256 0.913247 -0.691722
v 0.809737 0.913247 0.651654
v 0.834734 0.841549 0.663383
v 0.834734 0.841549 0.663383
v 0.834443 0.841549 -0.703623
v 0.814256 0.913247 -0.691722
v -0.776381 0.913247 -0.786061
v -0.680898 0.913247 -0.822827
v -0.694542 0.841549 -0.849281
v -0.694542 0.841549 -0.849281
v -0.798524 0.841549 -0.813424
v -0.776381 0.913247 -0.786061
v -0.741648 0.952714 -0.748770
v -0.669099 0.968491 -0.769635
v -0.680898 0.913247 -0.822827
v -0.680898 0.913247 -0.822827
v -0.776381 0.913247 -0.786061
v -0.741648 0.952714 -0.748770
v 0.667986 0.966739 -0.776728
v 0.679184 0.913247 -0.827556
v -0.680898 0.913247 -0.822827
v -0.680898 0.913247 -0.822827
v -0.669099 0.968491 -0.769635
v 0.667986 0.966739 -0.776728
v -0.680898 0.913247 -0.822827
v 0.679184 0.913247 -0.827556
v 0.689750 0.841549 -0.847436
v 0.689750 0.841549 -0.847436
v -0.694542 0.841549 -0.849281
v -0.680898 0.913247 -0.822827
v -0.774261 0.913247 0.758274
v -0.805004 0.913247 0.648297
v -0.833550 0.841549 0.662542
v -0.833550 0.841549 0.662542
v -0.799044 0.841549 0.781650
v -0.774261 0.913247 0.758274
v -0.735294 0.952219 0.718982
v -0.750213 0.967377 0.636125
v -0.805004 0.913247 0.648297
v -0.805004 0.913247 0.648297
v -0.774261 0.913247 0.758274
v -0.735294 0.952219 0.718982
v -0.765185 0.968491 -0.676205
v -0.814986 0.913247 -0.689494
v -0.805004 0.913247 0.648297
v -0.805004 0.913247 0.648297
v -0.750213 0.967377 0.636125
v -0.765185 0.968491 -0.676205
v -0.805004 0.913247 0.648297
v -0.814986 0.913247 -0.689494
v -0.835346 0.841549 -0.706093
v -0.835346 0.841549 -0.706093
v -0.833550 0.841549 0.662542
v -0.805004 0.913247 0.648297
v -0.741648 0.952714 -0.748770
v -0.765185 0.968491 -0.676205
v -0.671943 1.000000 -0.676353
v -0.671943 1.000000 -0.676353
v -0.669099 0.968491 -0.769635
v -0.741648 0.952714 -0.748770
v -0.765185 0.968491 -0.676205
v -0.750213 0.967377 0.636125
v -0.661960 0.995545 0.637596
v -0.661960 0.995545 0.637596
v -0.671943 1.000000 -0.676353
v -0.765185 0.968491 -0.676205
v -0.799044 0.841549 0.781650
v -0.792014 0.760677 0.774141
v -0.686768 0.760677 0.814085
v -0.686768 0.760677 0.814085
v -0.695316 0.841549 0.822733
v -0.799044 0.841549 0.781650
v -0.663004 0.696581 0.785396
v -0.686768 0.760677 0.814085
v -0.792014 0.760677 0.774141
v -0.792014 0.760677 0.774141
v -0.764603 0.696581 0.746894
v -0.663004 0.696581 0.785396
v 0.797165 0.841549 -0.809875
v 0.782395 0.760677 -0.795681
v 0.676363 0.760677 -0.834416
v 0.676363 0.760677 -0.834416
v 0.689750 0.841549 -0.847436
v 0.797165 0.841549 -0.809875
v 0.649998 0.696581 -0.803063
v 0.676363 0.760677 -0.834416
v 0.782395 0.760677 -0.795681
v 0.782395 0.760677 -0.795681
v 0.750907 0.696581 -0.764208
v 0.649998 0.696581 -0.803063
v 0.738961 0.952219 0.722038
v 0.756098 0.967377 0.640209
v 0.661838 0.995545 0.637144
v 0.661838 0.995545 0.637144
v 0.666644 0.967377 0.744220
v 0.738961 0.952219 0.722038
v 0.661838 0.995545 0.637144
v -0.661960 0.995545 0.637596
v -0.666978 0.967377 0.744897
v -0.666978 0.967377 0.744897
v 0.666644 0.967377 0.744220
v 0.661838 0.995545 0.637144
v 0.798960 0.841549 0.782671
v 0.790753 0.760677 0.774141
v 0.827027 0.760677 0.654311
v 0.827027 0.760677 0.654311
v 0.834734 0.841549 0.663383
v 0.798960 0.841549 0.782671
v 0.798342 0.696581 0.631389
v 0.827027 0.760677 0.654311
v 0.790753 0.760677 0.774141
v 0.790753 0.760677 0.774141
v 0.763326 0.696581 0.746894
v 0.798342 0.696581 0.631389
v -0.735294 0.952219 0.718982
v -0.666978 0.967377 0.744897
v -0.661960 0.995545 0.637596
v -0.661960 0.995545 0.637596
v -0.750213 0.967377 0.636125
v -0.735294 0.952219 0.718982
v -0.798524 0.841549 -0.813424
v -0.787897 0.760677 -0.813500
v -0.824351 0.760677 -0.702602
v -0.824351 0.760677 -0.702602
v -0.835346 0.841549 -0.706093
v -0.798524 0.841549 -0.813424
v -0.794391 0.696581 -0.681995
v -0.824351 0.760677 -0.702602
v -0.787897 0.760677 -0.813500
v -0.787897 0.760677 -0.813500
v -0.758486 0.696581 -0.790678
v -0.794391 0.696581 -0.681995
v -0.774261 0.913247 0.758274
v -0.681200 0.913247 0.800461
v -0.666978 0.967377 0.744897
v -0.666978 0.967377 0.744897
v -0.735294 0.952219 0.718982
v -0.774261 0.913247 0.758274
v -0.799044 0.841549 0.781650
v -0.695316 0.841549 0.822733
v -0.681200 0.913247 0.800461
v -0.681200 0.913247 0.800461
v -0.774261 0.913247 0.758274
v -0.799044 0.841549 0.781650
v 0.778911 0.913247 -0.790028
v 0.679184 0.913247 -0.827556
v 0.667986 0.966739 -0.776728
v 0.667986 0.966739 -0.776728
v 0.742144 0.951936 -0.754150
v 0.778911 0.913247 -0.790028
v 0.797165 0.841549 -0.809875
v 0.689750 0.841549 -0.847436
v 0.679184 0.913247 -0.827556
v 0.679184 0.913247 -0.827556
v 0.778911 0.913247 -0.790028
v 0.797165 0.841549 -0.809875
v 0.777568 0.913247 0.762358
v 0.809737 0.913247 0.651654
v 0.756098 0.967377 0.640209
v 0.756098 0.967377 0.640209
v 0.738961 0.952219 0.722038
v 0.777568 0.913247 0.762358
v 0.798960 0.841549 0.782671
v 0.834734 0.841549 0.663383
v 0.809737 0.913247 0.651654
v 0.809737 0.913247 0.651654
v 0.777568 0.913247 0.762358
v 0.798960 0.841549 0.782671
v -0.776381 0.913247 -0.786061
v -0.814986 0.913247 -0.689494
v -0.765185 0.968491 -0.676205
v -0.765185 0.968491 -0.676205
v -0.741648 0.952714 -0.748770
v -0.776381 0.913247 -0.786061
v -0.798524 0.841549 -0.813424
v -0.835346 0.841549 -0.706093
v -0.814986 0.913247 -0.689494
v -0.814986 0.913247 -0.689494
v -0.776381 0.913247 -0.786061
v -0.798524 0.841549 -0.813424
v -0.764409 -0.758785 -0.753544
v -0.764409 -0.758785 0.753544
v -0.885588 -0.482424 0.884386
v -0.885588 -0.482424 0.884386
v -0.885588 -0.482424 -0.884387
v -0.764409 -0.758785 -0.753544
v -0.885588 -0.482424 -0.884387
v -0.885588 -0.482424 0.884386
v -0.946816 -0.231709 0.953509
v -0.946816 -0.231709 0.953509
v -0.946816 -0.231709 -0.953509
v -0.885588 -0.482424 -0.884387
v -0.764409 -0.758785 0.753544
v -0.764409 -0.758785 -0.753544
v 0.764409 -0.758785 -0.753544
v 0.764409 -0.758785 -0.753544
v 0.764409 -0.758785 0.753544
v -0.764409 -0.758785 0.753544
v 0.872717 0.538957 0.870400
v 0.766589 0.794340 0.762597
v -0.766589 0.794340 0.762597
v -0.766589 0.794340 0.762597
v -0.872717 0.538957 0.870400
v 0.872717 0.538957 0.870400
v 0.932084 0.297353 0.938059
v 0.872717 0.538957 0.870400
v -0.872717 0.538957 0.870400
v -0.872717 0.538957 0.870400
v -0.932084 0.297353 0.938059
v 0.932084 0.297353 0.938059
v 0.960489 0.048225 0.967344
v 0.932084 0.297353 0.938059
v -0.932084 0.297353 0.938059
v -0.932084 0.297353 0.938059
v -0.960489 0.048225 0.967343
v 0.960489 0.048225 0.967344
v 0.932084 0.297353 0.938059
v 0.932084 0.297353 -0.938059
v 0.872717 0.538957 -0.870400
v 0.872717 0.538957 -0.870400
v 0.872717 0.538957 0.870400
v 0.932084 0.297353 0.938059
v 0.946816 -0.231709 0.953511
v -0.946816 -0.231709 0.953509
v -0.885588 -0.482424 0.884386
v -0.885588 -0.482424 0.884386
v 0.885588 -0.482424 0.884387
v 0.946816 -0.231709 0.953511
v 0.960489 0.048225 0.967344
v 0.946816 -0.231709 0.953511
v 0.946817 -0.231709 -0.953511
v 0.946817 -0.231709 -0.953511
v 0.960489 0.048225 -0.967344
v 0.960489 0.048225 0.967344
v -0.764409 -0.758785 0.753544
v 0.764409 -0.758785 0.753544
v 0.885588 -0.482424 0.884387
v 0.885588 -0.482424 0.884387
v -0.885588 -0.482424 0.884386
v -0.764409 -0.758785 0.753544
v -0.960489 0.048225 0.967343
v -0.946816 -0.231709 0.953509
v 0.946816 -0.231709 0.953511
v 0.946816 -0.231709 0.953511
v 0.960489 0.048225 0.967344
v -0.960489 0.048225 0.967343
v -0.766589 0.794340 0.762597
v -0.766589 0.794340 -0.762597
v -0.872717 0.538957 -0.870400
v -0.872717 0.538957 -0.870400
v -0.872717 0.538957 0.870400
v -0.766589 0.794340 0.762597
v -0.960489 0.048225 -0.967343
v -0.960489 0.048225 0.967343
v -0.932084 0.297353 0.938059
v -0.932084 0.297353 0.938059
v -0.932084 0.297353 -0.938059
v -0.960489 0.048225 -0.967343
v 0.932084 0.297353 -0.938059
v 0.932084 0.297353 0.938059
v 0.960489 0.048225 0.967344
v 0.960489 0.048225 0.967344
v 0.960489 0.048225 -0.967344
v 0.932084 0.297353 -0.938059
v 0.766589 0.794340 0.762597
v 0.872717 0.538957 0.870400
v 0.872717 0.538957 -0.870400
v 0.872717 0.538957 -0.870400
v 0.766589 0.794340 -0.762597
v 0.766589 0.794340 0.762597
v -0.872717 0.538957 -0.870400
v -0.932084 0.297353 -0.938059
v -0.932084 0.297353 0.938059
v -0.932084 0.297353 0.938059
v -0.872717 0.538957 0.870400
v -0.872717 0.538957 -0.870400
v -0.960489 0.048225 -0.967343
v -0.946816 -0.231709 -0.953509
v -0.946816 -0.231709 0.953509
v -0.946816 -0.231709 0.953509
v -0.960489 0.048225 0.967343
v -0.960489 0.048225 -0.967343
v -0.766589 0.794340 -0.762597
v 0.766589 0.794340 -0.762597
v 0.872717 0.538957 -0.870400
v 0.872717 0.538957 -0.870400
v -0.872717 0.538957 -0.870400
v -0.766589 0.794340 -0.762597
v 0.764409 -0.758785 0.753544
v 0.764409 -0.758785 -0.753544
v 0.885589 -0.482424 -0.884387
v 0.885589 -0.482424 -0.884387
v 0.885588 -0.482424 0.884387
v 0.764409 -0.758785 0.753544
v -0.872717 0.538957 -0.870400
v 0.872717 0.538957 -0.870400
v 0.932084 0.297353 -0.938059
v 0.932084 0.297353 -0.938059
v -0.932084 0.297353 -0.938059
v -0.872717 0.538957 -0.870400
v 0.885588 -0.482424 0.884387
v 0.885589 -0.482424 -0.884387
v 0.946817 -0.231709 -0.953511
v 0.946817 -0.231709 -0.953511
v 0.946816 -0.231709 0.953511
v 0.885588 -0.482424 0.884387
v -0.932084 0.297353 -0.938059
v 0.932084 0.297353 -0.938059
v 0.960489 0.048225 -0.967344
v 0.960489 0.048225 -0.967344
v -0.960489 0.048225 -0.967343
v -0.932084 0.297353 -0.938059
v 0.946817 -0.231709 -0.953511
v 0.885589 -0.482424 -0.884387
v -0.885588 -0.482424 -0.884387
v -0.885588 -0.482424 -0.884387
v -0.946816 -0.231709 -0.953509
v 0.946817 -0.231709 -0.953511
v 0.885589 -0.482424 -0.884387
v 0.764409 -0.758785 -0.753544
v -0.764409 -0.758785 -0.753544
v -0.764409 -0.758785 -0.753544
v -0.885588 -0.482424 -0.884387
v 0.885589 -0.482424 -0.884387
v -0.960489 0.048225 -0.967343
v 0.960489 0.048225 -0.967344
v 0.946817 -0.231709 -0.953511
v 0.946817 -0.231709 -0.953511
v -0.946816 -0.231709 -0.953509
v -0.960489 0.048225 -0.967343
v 0.705923 -1.000000 -0.518275
v 0.529903 -1.000000 -0.518275
v 0.529903 -1.000000 -0.691942
v 0.529903 -1.000000 -0.691942
v 0.705923 -1.000000 -0.691942
v 0.705923 -1.000000 -0.518275
v 0.529903 -1.000000 -0.518275
v 0.705923 -1.000000 -0.518275
v 0.710155 -0.758752 -0.429203
v 0.710155 -0.758752 -0.429203
v 0.442380 -0.758752 -0.429205
v 0.529903 -1.000000 -0.518275
v 0.710155 -0.758752 -0.429203
v 0.705923 -1.000000 -0.518275
v 0.705923 -1.000000 -0.691942
v 0.705923 -1.000000 -0.691942
v 0.703697 -0.758752 -0.694863
v 0.710155 -0.758752 -0.429203
v 0.705923 -1.000000 -0.691942
v 0.529903 -1.000000 -0.691942
v 0.442380 -0.758752 -0.694863
v 0.442380 -0.758752 -0.694863
v 0.703697 -0.758752 -0.694863
v 0.705923 -1.000000 -0.691942
v 0.442380 -0.758752 -0.694863
v 0.529903 -1.000000 -0.691942
v 0.529903 -1.000000 -0.518275
v 0.529903 -1.000000 -0.518275
v 0.442380 -0.758752 -0.429205
v 0.442380 -0.758752 -0.694863
v -0.522567 -1.000000 -0.691942
v -0.522567 -1.000000 -0.518275
v -0.698587 -1.000000 -0.518275
v -0.698587 -1.000000 -0.518275
v -0.698587 -1.000000 -0.691942
v -0.522567 -1.000000 -0.691942
v -0.702821 -0.758752 -0.429203
v -0.698587 -1.000000 -0.518275
v -0.522567 -1.000000 -0.518275
v -0.522567 -1.000000 -0.518275
v -0.435044 -0.758752 -0.429205
v -0.702821 -0.758752 -0.429203
v -0.698587 -1.000000 -0.691942
v -0.698587 -1.000000 -0.518275
v -0.702821 -0.758752 -0.429203
v -0.702821 -0.758752 -0.429203
v -0.696361 -0.758752 -0.694863
v -0.698587 -1.000000 -0.691942
v -0.435045 -0.758752 -0.694863
v -0.522567 -1.000000 -0.691942
v -0.698587 -1.000000 -0.691942
v -0.698587 -1.000000 -0.691942
v -0.696361 -0.758752 -0.694863
v -0.435045 -0.758752 -0.694863
v -0.522567 -1.000000 -0.518275
v -0.522567 -1.000000 -0.691942
v -0.435045 -0.758752 -0.694863
v -0.435045 -0.758752 -0.694863
v -0.435044 -0.758752 -0.429205
v -0.522567 -1.000000 -0.518275
v 0.529903 -1.000000 0.684907
v 0.529903 -1.000000 0.511240
v 0.705923 -1.000000 0.511240
v 0.705923 -1.000000 0.511240
v 0.705923 -1.000000 0.684907
v 0.529903 -1.000000 0.684907
v 0.710155 -0.758752 0.422169
v 0.705923 -1.000000 0.511240
v 0.529903 -1.000000 0.511240
v 0.529903 -1.000000 0.511240
v 0.442380 -0.758752 0.422170
v 0.710155 -0.758752 0.422169
v 0.705923 -1.000000 0.684907
v 0.705923 -1.000000 0.511240
v 0.710155 -0.758752 0.422169
v 0.710155 -0.758752 0.422169
v 0.703697 -0.758752 0.687828
v 0.705923 -1.000000 0.684907
v 0.442380 -0.758752 0.687828
v 0.529903 -1.000000 0.684907
v 0.705923 -1.000000 0.684907
v 0.705923 -1.000000 0.684907
v 0.703697 -0.758752 0.687828
v 0.442380 -0.758752 0.687828
v 0.529903 -1.000000 0.511240
v 0.529903 -1.000000 0.684907
v 0.442380 -0.758752 0.687828
v 0.442380 -0.758752 0.687828
v 0.442380 -0.758752 0.422170
v 0.529903 -1.000000 0.511240
v -0.698587 -1.000000 0.511240
v -0.522567 -1.000000 0.511240
v -0.522567 -1.000000 0.684907
v -0.522567 -1.000000 0.684907
v -0.698587 -1.000000 0.684907
v -0.698587 -1.000000 0.511240
v -0.522567 -1.000000 0.511240
v -0.698587 -1.000000 0.511240
v -0.702821 -0.758752 0.422169
v -0.702821 -0.758752 0.422169
v -0.435044 -0.758752 0.422170
v -0.522567 -1.000000 0.511240
v -0.702821 -0.758752 0.422169
v -0.698587 -1.000000 0.511240
v -0.698587 -1.000000 0.684907
v -0.698587 -1.000000 0.684907
v -0.696361 -0.758752 0.687828
v -0.702821 -0.758752 0.422169
v -0.698587 -1.000000 0.684907
v -0.522567 -1.000000 0.684907
v -0.435045 -0.758752 0.687828
v -0.435045 -0.758752 0.687828
v -0.696361 -0.758752 0.687828
v -0.698587 -1.000000 0.684907
v -0.435045 -0.758752 0.687828
v -0.522567 -1.000000 0.684907
v -0.522567 -1.000000 0.511240
v -0.522567 -1.000000 0.511240
v -0.435044 -0.758752 0.422170
v -0.435045 -0.758752 0.687828
vt 0.069093 0.651368
vt 0.068520 0.908067
vt 0.371587 0.909563
vt 0.371587 0.909563
vt 0.371157 0.650060
vt 0.069093 0.651368
vt 0.068520 0.908067
vt 0.069093 0.651368
vt 0.043916 0.649959
vt 0.043916 0.649959
vt 0.043382 0.909372
vt 0.068520 0.908067
vt 0.371587 0.909563
vt 0.068520 0.908067
vt 0.067169 0.926917
vt 0.068520 0.908067
vt 0.043382 0.909372
vt 0.047665 0.923983
vt 0.047665 0.923983
vt 0.067169 0.926917
vt 0.068520 0.908067
vt 0.067169 0.926917
vt 0.371911 0.928754
vt 0.371587 0.909563
vt 0.394134 0.910414
vt 0.371587 0.909563
vt 0.371911 0.928754
vt 0.371911 0.928754
vt 0.389620 0.925404
vt 0.394134 0.910414
vt 0.371587 0.909563
vt 0.394134 0.910414
vt 0.393440 0.649996
vt 0.393440 0.649996
vt 0.371157 0.650060
vt 0.371587 0.909563
vt 0.049033 0.636041
vt 0.043916 0.649959
vt 0.069093 0.651368
vt 0.069093 0.651368
vt 0.068781 0.633554
vt 0.049033 0.636041
vt 0.371875 0.631328
vt 0.068781 0.633554
vt 0.069093 0.651368
vt 0.069093 0.651368
vt 0.371157 0.650060
vt 0.371875 0.631328
vt 0.371157 0.650060
vt 0.393440 0.649996
vt 0.389433 0.635215
vt 0.389433 0.635215
vt 0.371875 0.631328
vt 0.371157 0.650060
vt 0.043916 0.649959
vt 0.049033 0.636041
vt 0.037262 0.626314
vt 0.371875 0.631328
vt 0.389433 0.635215
vt 0.400874 0.626044
vt 0.067169 0.926917
vt 0.047665 0.923983
vt 0.035782 0.933637
vt 0.394134 0.910414
vt 0.389620 0.925404
vt 0.400575 0.934844
vt 0.035782 0.933637
vt 0.063037 0.941784
vt 0.067169 0.926917
vt 0.037262 0.626314
vt 0.026054 0.645850
vt 0.043916 0.649959
vt 0.400575 0.934844
vt 0.411199 0.913962
vt 0.394134 0.910414
vt 0.400874 0.626044
vt 0.376631 0.616889
vt 0.371875 0.631328
vt 0.064604 0.618456
vt 0.037262 0.626314
vt 0.049033 0.636041
vt 0.049033 0.636041
vt 0.068781 0.633554
vt 0.064604 0.618456
vt 0.411199 0.646409
vt 0.400874 0.626044
vt 0.389433 0.635215
vt 0.389433 0.635215
vt 0.393440 0.649996
vt 0.411199 0.646409
vt 0.025452 0.912949
vt 0.035782 0.933637
vt 0.047665 0.923983
vt 0.047665 0.923983
vt 0.043382 0.909372
vt 0.025452 0.912949
vt 0.025452 0.912949
vt 0.043382 0.909372
vt 0.043916 0.649959
vt 0.043916 0.649959
vt 0.026054 0.645850
vt 0.025452 0.912949
vt 0.375963 0.943225
vt 0.400575 0.934844
vt 0.389620 0.925404
vt 0.389620 0.925404
vt 0.371911 0.928754
vt 0.375963 0.943225
vt 0.371875 0.631328
vt 0.376631 0.616889
vt 0.064604 0.618456
vt 0.064604 0.618456
vt 0.068781 0.633554
vt 0.371875 0.631328
vt 0.063037 0.941784
vt 0.375963 0.943225
vt 0.371911 0.928754
vt 0.371911 0.928754
vt 0.067169 0.926917
vt 0.063037 0.941784
vt 0.411199 0.646409
vt 0.393440 0.649996
vt 0.394134 0.910414
vt 0.394134 0.910414
vt 0.411199 0.913962
vt 0.411199 0.646409
vt 0.924610 0.313961
vt 0.924610 0.040990
vt 0.905322 0.039157
vt 0.905322 0.039157
vt 0.905321 0.315666
vt 0.924610 0.313961
vt 0.924610 0.040990
vt 0.924610 0.313961
vt 0.940155 0.309223
vt 0.940155 0.309223
vt 0.940155 0.045710
vt 0.924610 0.040990
vt 0.905795 0.017653
vt 0.905322 0.039157
vt 0.924610 0.040990
vt 0.924610 0.040990
vt 0.925082 0.019290
vt 0.905795 0.017653
vt 0.925082 0.019290
vt 0.924610 0.040990
vt 0.940155 0.045710
vt 0.940155 0.045710
vt 0.940611 0.024761
vt 0.925082 0.019290
vt 0.940155 0.309223
vt 0.924610 0.313961
vt 0.925082 0.334953
vt 0.925082 0.334953
vt 0.940611 0.329487
vt 0.940155 0.309223
vt 0.924610 0.313961
vt 0.905321 0.315666
vt 0.905807 0.336355
vt 0.905807 0.336355
vt 0.925082 0.334953
vt 0.924610 0.313961
vt 0.905321 0.315666
vt 0.905322 0.039157
vt 0.888580 0.041574
vt 0.888580 0.041574
vt 0.888575 0.312852
vt 0.905321 0.315666
vt 0.905807 0.336355
vt 0.905321 0.315666
vt 0.888575 0.312852
vt 0.888575 0.312852
vt 0.889074 0.331414
vt 0.905807 0.336355
vt 0.889026 0.021920
vt 0.888580 0.041574
vt 0.905322 0.039157
vt 0.905322 0.039157
vt 0.905795 0.017653
vt 0.889026 0.021920
vt 0.920320 0.966453
vt 0.920097 0.690801
vt 0.939422 0.693444
vt 0.939422 0.693444
vt 0.939541 0.964347
vt 0.920320 0.966453
vt 0.939422 0.693444
vt 0.920097 0.690801
vt 0.920451 0.669370
vt 0.920451 0.669370
vt 0.939788 0.672288
vt 0.939422 0.693444
vt 0.920694 0.987118
vt 0.920320 0.966453
vt 0.939541 0.964347
vt 0.939541 0.964347
vt 0.939884 0.984994
vt 0.920694 0.987118
vt 0.939541 0.964347
vt 0.939422 0.693444
vt 0.954949 0.698653
vt 0.954949 0.698653
vt 0.939422 0.693444
vt 0.939788 0.672288
vt 0.954949 0.698653
vt 0.955001 0.959314
vt 0.939541 0.964347
vt 0.939884 0.984994
vt 0.939541 0.964347
vt 0.955001 0.959314
vt 0.955001 0.959314
vt 0.955317 0.979106
vt 0.939884 0.984994
vt 0.939788 0.672288
vt 0.955317 0.678516
vt 0.954949 0.698653
vt 0.920097 0.690801
vt 0.920320 0.966453
vt 0.903564 0.963714
vt 0.903564 0.963714
vt 0.903281 0.692890
vt 0.920097 0.690801
vt 0.920451 0.669370
vt 0.920097 0.690801
vt 0.903281 0.692890
vt 0.903281 0.692890
vt 0.903636 0.672990
vt 0.920451 0.669370
vt 0.903946 0.982686
vt 0.903564 0.963714
vt 0.920320 0.966453
vt 0.920320 0.966453
vt 0.920694 0.987118
vt 0.903946 0.982686
vt 0.871475 0.077979
vt 0.871506 0.349080
vt 0.852254 0.350728
vt 0.852254 0.350728
vt 0.852169 0.077285
vt 0.871475 0.077979
vt 0.852665 0.374523
vt 0.852254 0.350728
vt 0.871506 0.349080
vt 0.871506 0.349080
vt 0.871924 0.373019
vt 0.852665 0.374523
vt 0.871475 0.077979
vt 0.852169 0.077285
vt 0.852596 0.055839
vt 0.852596 0.055839
vt 0.871898 0.055821
vt 0.871475 0.077979
vt 0.871506 0.349080
vt 0.871475 0.077979
vt 0.887027 0.082092
vt 0.887027 0.082092
vt 0.887040 0.344496
vt 0.871506 0.349080
vt 0.871924 0.373019
vt 0.871506 0.349080
vt 0.887040 0.344496
vt 0.887040 0.344496
vt 0.887443 0.367572
vt 0.871924 0.373019
vt 0.887027 0.082092
vt 0.871475 0.077979
vt 0.871898 0.055821
vt 0.871898 0.055821
vt 0.887443 0.060377
vt 0.887027 0.082092
vt 0.852596 0.055839
vt 0.852169 0.077285
vt 0.835407 0.080603
vt 0.835587 0.347883
vt 0.835407 0.080603
vt 0.852169 0.077285
vt 0.852169 0.077285
vt 0.852254 0.350728
vt 0.835587 0.347883
vt 0.835407 0.080603
vt 0.835856 0.061308
vt 0.852596 0.055839
vt 0.835953 0.369854
vt 0.835587 0.347883
vt 0.852254 0.350728
vt 0.852254 0.350728
vt 0.852665 0.374523
vt 0.835953 0.369854
vt 0.109429 0.958413
vt 0.432776 0.958575
vt 0.430618 0.975081
vt 0.430618 0.975081
vt 0.112464 0.975000
vt 0.109429 0.958413
vt 0.112464 0.975000
vt 0.430618 0.975081
vt 0.425174 0.988495
vt 0.425174 0.988495
vt 0.118680 0.988460
vt 0.112464 0.975000
vt 0.430618 0.975081
vt 0.432776 0.958575
vt 0.460973 0.959118
vt 0.460973 0.959118
vt 0.458943 0.975632
vt 0.430618 0.975081
vt 0.084276 0.958951
vt 0.109429 0.958413
vt 0.112464 0.975000
vt 0.112464 0.975000
vt 0.087617 0.975565
vt 0.084276 0.958951
vt 0.087617 0.975565
vt 0.112464 0.975000
vt 0.118680 0.988460
vt 0.118680 0.988460
vt 0.095038 0.989027
vt 0.087617 0.975565
vt 0.425174 0.988495
vt 0.430618 0.975081
vt 0.458943 0.975632
vt 0.458943 0.975632
vt 0.452476 0.989027
vt 0.425174 0.988495
vt 0.432776 0.958575
vt 0.109429 0.958413
vt 0.112240 0.944179
vt 0.112240 0.944179
vt 0.429996 0.944410
vt 0.432776 0.958575
vt 0.460973 0.959118
vt 0.432776 0.958575
vt 0.429996 0.944410
vt 0.429996 0.944410
vt 0.456164 0.944899
vt 0.460973 0.959118
vt 0.088968 0.944690
vt 0.112240 0.944179
vt 0.109429 0.958413
vt 0.109429 0.958413
vt 0.084276 0.958951
vt 0.088968 0.944690
vt 0.549208 0.707538
vt 0.549208 0.999523
vt 0.901018 0.999523
vt 0.901018 0.999523
vt 0.901018 0.707538
vt 0.549208 0.707538
vt 0.003825 0.511858
vt 0.000566 0.456493
vt 0.454186 0.456493
vt 0.454186 0.456493
vt 0.450958 0.511858
vt 0.003825 0.511858
vt 0.454186 0.456493
vt 0.000566 0.456493
vt 0.007461 0.407178
vt 0.007461 0.407178
vt 0.447348 0.407178
vt 0.454186 0.456493
vt 0.447348 0.407178
vt 0.007461 0.407178
vt 0.023386 0.359319
vt 0.023386 0.359319
vt 0.431546 0.359319
vt 0.447348 0.407178
vt 0.406381 0.308683
vt 0.431546 0.359319
vt 0.023386 0.359319
vt 0.023386 0.359319
vt 0.048774 0.308683
vt 0.406381 0.308683
vt 0.003825 0.511858
vt 0.450958 0.511858
vt 0.434818 0.561392
vt 0.434818 0.561392
vt 0.020099 0.561392
vt 0.003825 0.511858
vt 0.020099 0.561392
vt 0.434818 0.561392
vt 0.404270 0.615935
vt 0.404270 0.615935
vt 0.050908 0.615935
vt 0.020099 0.561392
vt 0.450932 0.203648
vt 0.454186 0.148282
vt 0.000566 0.148282
vt 0.000566 0.148282
vt 0.003799 0.203648
vt 0.450932 0.203648
vt 0.000566 0.148282
vt 0.454186 0.148282
vt 0.447301 0.098968
vt 0.447301 0.098968
vt 0.007414 0.098968
vt 0.000566 0.148282
vt 0.023239 0.051110
vt 0.007414 0.098968
vt 0.447301 0.098968
vt 0.447301 0.098968
vt 0.431399 0.051110
vt 0.023239 0.051110
vt 0.023239 0.051110
vt 0.431399 0.051110
vt 0.406053 0.000477
vt 0.406053 0.000477
vt 0.048445 0.000477
vt 0.023239 0.051110
vt 0.450932 0.203648
vt 0.003799 0.203648
vt 0.019964 0.253183
vt 0.019964 0.253183
vt 0.434683 0.253183
vt 0.450932 0.203648
vt 0.434683 0.253183
vt 0.019964 0.253183
vt 0.050561 0.307729
vt 0.050561 0.307729
vt 0.403924 0.307729
vt 0.434683 0.253183
vt 0.902149 0.540828
vt 0.450792 0.540828
vt 0.454042 0.596373
vt 0.454042 0.596373
vt 0.898974 0.596373
vt 0.902149 0.540828
vt 0.450792 0.540828
vt 0.902149 0.540828
vt 0.895549 0.491374
vt 0.895549 0.491374
vt 0.457540 0.491374
vt 0.450792 0.540828
vt 0.457540 0.491374
vt 0.895549 0.491374
vt 0.881774 0.443392
vt 0.881774 0.443392
vt 0.471663 0.443392
vt 0.457540 0.491374
vt 0.471663 0.443392
vt 0.881774 0.443392
vt 0.857115 0.392653
vt 0.857115 0.392653
vt 0.496877 0.392653
vt 0.471663 0.443392
vt 0.884769 0.646088
vt 0.898974 0.596373
vt 0.454042 0.596373
vt 0.454042 0.596373
vt 0.468609 0.646088
vt 0.884769 0.646088
vt 0.856638 0.700859
vt 0.884769 0.646088
vt 0.468609 0.646088
vt 0.468609 0.646088
vt 0.497423 0.700859
vt 0.856638 0.700859
vt 0.579187 0.381323
vt 0.645036 0.384065
vt 0.645036 0.003340
vt 0.645036 0.003340
vt 0.579187 0.006018
vt 0.579187 0.381323
vt 0.703665 0.008907
vt 0.645036 0.003340
vt 0.645036 0.384065
vt 0.645036 0.384065
vt 0.703665 0.378373
vt 0.703665 0.008907
vt 0.760549 0.020527
vt 0.703665 0.008907
vt 0.703665 0.378373
vt 0.703665 0.378373
vt 0.760549 0.366460
vt 0.760549 0.020527
vt 0.820701 0.041326
vt 0.760549 0.020527
vt 0.760549 0.366460
vt 0.760549 0.366460
vt 0.820701 0.345192
vt 0.820701 0.041326
vt 0.579187 0.381323
vt 0.579187 0.006018
vt 0.520249 0.018000
vt 0.520249 0.018000
vt 0.520249 0.369035
vt 0.579187 0.381323
vt 0.520249 0.369035
vt 0.520249 0.018000
vt 0.455317 0.041729
vt 0.455317 0.041729
vt 0.455317 0.344731
vt 0.520249 0.369035
vt 0.895362 0.483324
vt 0.895362 0.448826
vt 0.955317 0.447996
vt 0.955317 0.447996
vt 0.955317 0.500477
vt 0.895362 0.483324
vt 0.005090 0.945134
vt 0.065045 0.945700
vt 0.065045 0.979384
vt 0.065045 0.979384
vt 0.005091 0.996660
vt 0.005090 0.945134
vt 0.944005 0.145515
vt 0.944005 0.094424
vt 0.999434 0.093989
vt 0.999434 0.093989
vt 0.999434 0.128403
vt 0.944005 0.145515
vt 0.930430 0.359256
vt 0.950919 0.312500
vt 0.990836 0.312500
vt 0.990836 0.312500
vt 0.991516 0.359256
vt 0.930430 0.359256
vt 0.949661 0.255248
vt 0.990385 0.255248
vt 0.990385 0.220897
vt 0.990385 0.220897
vt 0.949661 0.220897
vt 0.949661 0.255248
vt 0.459842 0.727554
vt 0.519796 0.710401
vt 0.519796 0.762882
vt 0.519796 0.762882
vt 0.459842 0.762052
vt 0.459842 0.727554
vt 0.885181 0.415453
vt 0.885181 0.381769
vt 0.945136 0.381202
vt 0.945136 0.381202
vt 0.945136 0.432729
vt 0.885181 0.415453
vt 0.880656 0.055821
vt 0.825226 0.038709
vt 0.825226 0.004294
vt 0.825226 0.004294
vt 0.880656 0.004729
vt 0.880656 0.055821
vt 0.544003 0.804867
vt 0.504087 0.804866
vt 0.483597 0.851622
vt 0.483597 0.851622
vt 0.544683 0.851622
vt 0.544003 0.804867
vt 0.997172 0.799141
vt 0.997172 0.833492
vt 0.956448 0.833492
vt 0.956448 0.833492
vt 0.956448 0.799141
vt 0.997172 0.799141
vt 0.434955 0.782920
vt 0.494909 0.783749
vt 0.494909 0.818247
vt 0.494909 0.818247
vt 0.434955 0.835401
vt 0.434955 0.782920
vt 0.454067 0.640744
vt 0.414133 0.640744
vt 0.413462 0.691317
vt 0.413462 0.691317
vt 0.474548 0.691317
vt 0.454067 0.640744
vt 0.941742 0.010973
vt 0.997172 0.011408
vt 0.997172 0.062500
vt 0.997172 0.062500
vt 0.941742 0.045388
vt 0.941742 0.010973
vt 0.903281 0.518226
vt 0.903281 0.551896
vt 0.958710 0.569179
vt 0.958710 0.569179
vt 0.958710 0.517653
vt 0.903281 0.518226
vt 0.908937 0.606393
vt 0.949661 0.606393
vt 0.949661 0.572042
vt 0.949661 0.572042
vt 0.908937 0.572042
vt 0.908937 0.606393
vt 0.490385 0.869752
vt 0.428167 0.869752
vt 0.448503 0.920324
vt 0.448503 0.920324
vt 0.489401 0.920324
vt 0.490385 0.869752
vt 0.529977 0.977576
vt 0.529306 0.927004
vt 0.489372 0.927004
vt 0.489372 0.927004
vt 0.468891 0.977576
vt 0.529977 0.977576
vt 0.901018 0.657920
vt 0.901018 0.623505
vt 0.956448 0.606393
vt 0.956448 0.606393
vt 0.956448 0.657485
vt 0.901018 0.657920
vt 0.492647 0.857921
vt 0.548077 0.857347
vt 0.548077 0.908874
vt 0.548077 0.908874
vt 0.492647 0.891591
vt 0.492647 0.857921
vt 0.999434 0.584447
vt 0.999434 0.618798
vt 0.958710 0.618798
vt 0.958710 0.618798
vt 0.958710 0.584447
vt 0.999434 0.584447
f 1/25 2/26 3/27
f 4/28 5/29 6/30
f 7/31 8/32 9/33
f 10/34 11/35 12/36
f 13/4 14/5 15/6
f 16/1 17/2 18/3
f 19/13 20/14 21/15
f 22/22 23/23 24/24
f 25/145 26/146 27/147
f 28/148 29/149 30/150
f 31/139 32/140 33/141
f 34/142 35/143 36/144
f 37/130 38/131 39/132
f 40/127 41/128 42/129
f 43/133 44/134 45/135
f 46/136 47/137 48/138
f 49/313 50/314 51/315
f 52/316 53/317 54/318
f 55/307 56/308 57/309
f 58/310 59/311 60/312
f 61/289 62/290 63/291
f 64/292 65/293 66/294
f 67/295 68/296 69/297
f 70/298 71/299 72/300
f 73/208 74/209 75/210
f 76/211 77/212 78/213
f 79/193 80/194 81/195
f 82/196 83/197 84/198
f 85/181 86/182 87/183
f 88/184 89/185 90/186
f 91/199 92/200 93/201
f 94/205 95/206 96/207
f 97/259 98/260 99/261
f 100/262 101/263 102/264
f 103/241 104/242 105/243
f 106/244 107/245 108/246
f 109/238 110/239 111/240
f 112/235 113/236 114/237
f 115/253 116/254 117/255
f 118/256 119/257 120/258
f 121/175 122/176 123/177
f 124/178 125/179 126/180
f 127/94 128/95 129/96
f 130/91 131/92 132/93
f 133/100 134/101 135/102
f 136/97 137/98 138/99
f 139/166 140/167 141/168
f 142/163 143/164 144/165
f 145/337 146/338 147/339
f 148/340 149/341 150/342
f 151/106 152/107 153/108
f 154/103 155/104 156/105
f 157/118 158/119 159/120
f 160/115 161/116 162/117
f 163/328 164/329 165/330
f 166/325 167/326 168/327
f 169/229 170/230 171/231
f 172/232 173/233 174/234
f 175/88 176/89 177/90
f 178/85 179/86 180/87
f 181/124 182/125 183/126
f 184/121 185/122 186/123
f 187/220 188/221 189/222
f 190/217 191/218 192/219
f 193/283 194/284 195/285
f 196/286 197/287 198/288
f 199/82 200/83 201/84
f 202/79 203/80 204/81
f 205/109 206/110 207/111
f 208/112 209/113 210/114
f 211/274 212/275 213/276
f 214/277 215/278 216/279
f 217/52 218/53 219/54
f 220/49 221/50 222/51
f 223/43 224/44 225/45
f 226/46 227/47 228/48
f 229/160 230/161 231/162
f 232/157 233/158 234/159
f 235/151 236/152 237/153
f 238/154 239/155 240/156
f 241/190 242/191 243/192
f 244/187 245/188 246/189
f 247/202 248/203 249/204
f 250/214 251/215 252/216
f 253/19 254/20 255/21
f 256/16 257/17 258/18
f 259/7 260/8 261/9
f 262/10 263/11 264/12
f 265/304 266/305 267/306
f 268/301 269/302 270/303
f 271/319 272/320 273/321
f 274/322 275/323 276/324
f 277/37 278/38 279/39
f 280/40 281/41 282/42
f 283/250 284/251 285/252
f 286/247 287/248 288/249
f 289/265 290/266 291/267
f 292/268 293/269 294/270
f 295/70 296/71 297/72
f 298/55 299/56 300/57
f 301/169 302/170 303/171
f 304/172 305/173 306/174
f 307/73 308/74 309/75
f 310/64 311/65 312/66
f 313/223 314/224 315/225
f 316/226 317/227 318/228
f 319/67 320/68 321/69
f 322/61 323/62 324/63
f 325/331 326/332 327/333
f 328/334 329/335 330/336
f 331/76 332/77 333/78
f 334/58 335/59 336/60
f 337/271 338/272 339/273
f 340/280 341/281 342/282
f 343/418 344/419 345/420
f 346/415 347/416 348/417
f 349/412 350/413 351/414
f 352/409 353/410 354/411
f 355/343 356/344 357/345
f 358/346 359/347 360/348
f 361/478 362/479 363/480
f 364/475 365/476 366/477
f 367/472 368/473 369/474
f 370/469 371/470 372/471
f 373/466 374/467 375/468
f 376/463 377/464 378/465
f 379/361 380/362 381/363
f 382/364 383/365 384/366
f 385/481 386/482 387/483
f 388/484 389/485 390/486
f 391/352 392/353 393/354
f 394/349 395/350 396/351
f 397/490 398/491 399/492
f 400/487 401/488 402/489
f 403/460 404/461 405/462
f 406/457 407/458 408/459
f 409/406 410/407 411/408
f 412/403 413/404 414/405
f 415/391 416/392 417/393
f 418/394 419/395 420/396
f 421/358 422/359 423/360
f 424/355 425/356 426/357
f 427/367 428/368 429/369
f 430/370 431/371 432/372
f 433/397 434/398 435/399
f 436/400 437/401 438/402
f 439/388 440/389 441/390
f 442/385 443/386 444/387
f 445/442 446/443 447/444
f 448/439 449/440 450/441
f 451/382 452/383 453/384
f 454/379 455/380 456/381
f 457/436 458/437 459/438
f 460/433 461/434 462/435
f 463/376 464/377 465/378
f 466/373 467/374 468/375
f 469/430 470/431 471/432
f 472/427 473/428 474/429
f 475/448 476/449 477/450
f 478/445 479/446 480/447
f 481/454 482/455 483/456
f 484/451 485/452 486/453
f 487/421 488/422 489/423
f 490/424 491/425 492/426
f 493/517 494/518 495/519
f 496/520 497/521 498/522
f 499/493 500/494 501/495
f 502/496 503/497 504/498
f 505/511 506/512 507/513
f 508/514 509/515 510/516
f 511/508 512/509 513/510
f 514/505 515/506 516/507
f 517/499 518/500 519/501
f 520/502 521/503 522/504
f 523/547 524/548 525/549
f 526/550 527/551 528/552
f 529/526 530/527 531/528
f 532/523 533/524 534/525
f 535/541 536/542 537/543
f 538/544 539/545 540/546
f 541/535 542/536 543/537
f 544/538 545/539 546/540
f 547/529 548/530 549/531
f 550/532 551/533 552/534
f 553/577 554/578 555/579
f 556/580 557/581 558/582
f 559/553 560/554 561/555
f 562/556 563/557 564/558
f 565/571 566/572 567/573
f 568/574 569/575 570/576
f 571/568 572/569 573/570
f 574/565 575/566 576/567
f 577/559 578/560 579/561
f 580/562 581/563 582/564
f 583/607 584/608 585/609
f 586/610 587/611 588/612
f 589/586 590/587 591/588
f 592/583 593/584 594/585
f 595/604 596/605 597/606
f 598/601 599/602 600/603
f 601/595 602/596 603/597
f 604/598 605/599 606/600
f 607/589 608/590 609/591
f 610/592 611/593 612/594